<?xml version="1.0" encoding="utf-8"?>
<!-- Generator: Adobe Illustrator 21.1.0, SVG Export Plug-In . SVG Version: 6.00 Build 0)  -->
<svg version="1.1" id="Capa_1" xmlns="http://www.w3.org/2000/svg" xmlns:xlink="http://www.w3.org/1999/xlink" x="0px" y="0px"
	 viewBox="0 0 350 280" style="enable-background:new 0 0 350 280;" xml:space="preserve">
<style type="text/css">
	.st0{fill:#1D1D1B;}
	.st1{fill:#EDEDED;}
	.st2{fill:none;stroke:#A2A2A2;stroke-width:11;}
	.st3{fill:#FFFFFF;stroke:#A2A2A2;stroke-width:5;}
	.st4{fill:#EDEEF0;stroke:#A2A2A2;stroke-width:6;}
	.st5{fill:#FFFFFF;stroke:#A2A2A2;stroke-width:3;}
</style>
<g>
	<path class="st0" d="M143.2,217.1l-27.3,0v11.2l-5.5-0.1v-27.6h32.7V217.1z M115.9,211.5h21.8V206h-21.8V211.5z"/>
	<path class="st0" d="M181.4,217.1H177l4.4,11h-5.5l-4.6-11l-17.2,0v11.2l-5.5-0.1v-27.6h32.7V217.1z M154.1,211.5H176V206h-21.8
		V211.5z"/>
	<path class="st0" d="M219.6,228.1L219.6,228.1L219.6,228.1h-32.8v-27.6h32.7L219.6,228.1z M192.3,222.7h21.8V206h-21.8V222.7z"/>
	<path class="st0" d="M257.8,206h-13.5v22.2l-5.5-0.1V206h-13.8v-5.5h32.7V206z"/>
	<path class="st0" d="M296,228.1L296,228.1L296,228.1h-32.8v-27.6H296L296,228.1z M268.7,222.7h21.8V206h-21.8V222.7z"/>
	<path class="st0" d="M328.7,228.1V206h-21.8v22.2h-5.4v-27.6h32.7v27.6H328.7z"/>
</g>
<path class="st0" d="M143.2,241.3h-13.5v22.2l-5.5-0.1v-22.1h-13.8v-5.5h32.7V241.3z"/>
<path class="st0" d="M181.4,241.3h-27.3v5.6h27.3v5.5l-27.3,0v5.7h27.3v5.5l-32.7-0.1v-27.6h32.7V241.3z"/>
<path class="st0" d="M252.3,263.5v-22.2h-8v22.2h-5.5v-22.2h-8.3v22.2h-5.4v-27.6h32.7v27.6H252.3z"/>
<g>
	<g>
		<path class="st1" d="M215.6,98.7C212.3,61.9,181.4,33,143.7,33c-39.9,0-72.2,32.3-72.2,72.2c0,0.5,0,1,0,1.6
			c-4-1.1-8.1-1.7-12.4-1.7c-25.4,0-46.1,20.6-46.1,46.1c0,25.4,20.6,46.1,46.1,46.1c20.7,0,38.1-13.6,44-32.3
			c11.6,7.9,25.5,12.5,40.6,12.5c10.5,0,20.6-2.3,29.6-6.3c1.5,0.1,3,0.2,4.6,0.2c25.4,0,46.1-20.6,46.1-46.1
			C223.9,115.3,220.8,106.2,215.6,98.7z"/>
	</g>
	<g>
		<path class="st2" d="M215.6,98.7C212.3,61.9,181.4,33,143.7,33c-39.9,0-72.2,32.3-72.2,72.2c0,0.5,0,1,0,1.6
			c-4-1.1-8.1-1.7-12.4-1.7c-25.4,0-46.1,20.6-46.1,46.1c0,25.4,20.6,46.1,46.1,46.1c20.7,0,38.1-13.6,44-32.3
			c11.6,7.9,25.5,12.5,40.6,12.5c10.5,0,20.6-2.3,29.6-6.3c1.5,0.1,3,0.2,4.6,0.2c25.4,0,46.1-20.6,46.1-46.1
			C223.9,115.3,220.8,106.2,215.6,98.7z"/>
	</g>
</g>
<line class="st3" x1="169.4" y1="153.9" x2="188" y2="172.4"/>
<line class="st3" x1="167.7" y1="163.9" x2="176.8" y2="173"/>
<line class="st3" x1="182.8" y1="155.5" x2="193.8" y2="166.6"/>
<line class="st3" x1="195.1" y1="156.2" x2="203.1" y2="164.2"/>
<line class="st3" x1="203.3" y1="152.7" x2="210.8" y2="160.2"/>
<line class="st3" x1="206.4" y1="144.2" x2="215.3" y2="153.1"/>
<line class="st3" x1="199.1" y1="125.2" x2="217.2" y2="143.3"/>
<line class="st3" x1="196.1" y1="110.5" x2="223" y2="137.4"/>
<line class="st3" x1="180.1" y1="82.9" x2="224.4" y2="127.2"/>
<line class="st3" x1="177.1" y1="68.6" x2="223.6" y2="115.1"/>
<line class="st3" x1="192.8" y1="73" x2="217.3" y2="97.4"/>
<circle class="st4" cx="79.8" cy="25.8" r="9.3"/>
<line class="st5" x1="83.7" y1="25.6" x2="75.9" y2="25.6"/>
<line class="st5" x1="79.8" y1="21.8" x2="79.8" y2="29.5"/>
<circle class="st4" cx="229.9" cy="39" r="9.3"/>
<line class="st5" x1="234.1" y1="38.9" x2="226.3" y2="38.9"/>
<path class="st0" d="M186.9,235.8v5.5v5.6v5.5v11h5.5v-11v0h21.8v11.1h5.5v-27.6H186.9z M214.1,246.9h-21.8v-5.6l0,0h21.8V246.9z"/>
</svg>
